{
    "asset": {
        "version": "2.0",
        "generator": "Open Asset Import Library (assimp v5.0.5eb040c7)"
    },
    "accessors": [
        {
            "bufferView": 0,
            "byteOffset": 0,
            "componentType": 5126,
            "count": 110535,
            "type": "VEC3",
            "max": [
                259.3418884277344,
                491.814208984375,
                300.94268798828127
            ],
            "min": [
                -276.9950866699219,
                -51.44150161743164,
                -267.5032958984375
            ]
        },
        {
            "bufferView": 1,
            "byteOffset": 0,
            "componentType": 5126,
            "count": 110535,
            "type": "VEC3",
            "max": [
                0.9999796152114868,
                0.9999909400939941,
                0.9999946355819702
            ],
            "min": [
                -0.9999868869781494,
                -0.9999935626983643,
                -0.9999957084655762
            ]
        },
        {
            "bufferView": 2,
            "byteOffset": 0,
            "componentType": 5126,
            "count": 110535,
            "type": "VEC2",
            "max": [
                0.9950000047683716,
                0.9950000047683716
            ],
            "min": [
                0.004999999888241291,
                0.005299985408782959
            ]
        },
        {
            "bufferView": 3,
            "byteOffset": 0,
            "componentType": 5125,
            "count": 466560,
            "type": "SCALAR",
            "max": [
                110534
            ],
            "min": [
                0
            ]
        }
    ],
    "buffers": [
        {
            "byteLength": 5403360,
            "uri": "result.bin"
        }
    ],
    "bufferViews": [
        {
            "buffer": 0,
            "byteOffset": 0,
            "byteLength": 1326420,
            "target": 34962
        },
        {
            "buffer": 0,
            "byteOffset": 1326420,
            "byteLength": 1326420,
            "target": 34962
        },
        {
            "buffer": 0,
            "byteOffset": 2652840,
            "byteLength": 884280,
            "target": 34962
        },
        {
            "buffer": 0,
            "byteOffset": 3537120,
            "byteLength": 1866240,
            "target": 34963
        }
    ],
    "materials": [
        {
            "name": "DefaultMaterial",
            "pbrMetallicRoughness": {
                "baseColorFactor": [
                    0.6000000238418579,
                    0.6000000238418579,
                    0.6000000238418579,
                    1.0
                ],
                "metallicFactor": 0.0
            }
        },
        {
            "name": "Object001_mtl",
            "pbrMetallicRoughness": {
                "baseColorFactor": [
                    0.6000000238418579,
                    0.6000000238418579,
                    0.6000000238418579,
                    1.0
                ],
                "metallicFactor": 0.0
            }
        }
    ],
    "meshes": [
        {
            "name": "Object001",
            "primitives": [
                {
                    "mode": 4,
                    "material": 1,
                    "indices": 3,
                    "attributes": {
                        "POSITION": 0,
                        "NORMAL": 1,
                        "TEXCOORD_0": 2
                    }
                }
            ]
        }
    ],
    "nodes": [
        {
            "name": "input.obj",
            "children": [
                1
            ]
        },
        {
            "name": "Object001",
            "mesh": 0
        }
    ],
    "scenes": [
        {
            "nodes": [
                0
            ]
        }
    ],
    "scene": 0
}